<svg xmlns="http://www.w3.org/2000/svg" width="34.737" height="22" viewBox="0 0 34.737 22">
  <g id="behance-logo" transform="translate(0 -17.564)">
    <g id="Group_20" data-name="Group 20" transform="translate(0 17.564)">
      <path id="Path_654" data-name="Path 654" d="M14.019,27.4s3.287-.244,3.287-4.1-2.689-5.736-6.1-5.736H0V39.107H11.21s6.843.216,6.843-6.358C18.054,32.749,18.352,27.4,14.019,27.4Zm-9.08-6.006H11.21s1.524,0,1.524,2.241-.9,2.566-1.913,2.566H4.939Zm5.982,13.886H4.939V29.521H11.21s2.271-.029,2.271,2.959C13.481,34.971,11.82,35.254,10.921,35.279Z" transform="translate(0 -17.564)"/>
      <rect id="Rectangle_53" data-name="Rectangle 53" width="8.889" height="2.653" transform="translate(22.546 1.269)"/>
      <path id="Path_655" data-name="Path 655" d="M60.4,32.682c-8.285,0-8.277,8.277-8.277,8.277s-.568,8.236,8.278,8.236c0,0,7.372.421,7.372-5.729H63.978s.127,2.317-3.454,2.317a3.5,3.5,0,0,1-3.791-3.749H67.9S69.117,32.682,60.4,32.682Zm3.37,6.476H56.691a3.852,3.852,0,0,1,3.791-3.321A3.206,3.206,0,0,1,63.767,39.158Z" transform="translate(-33.217 -27.2)"/>
    </g>
  </g>
</svg>
