<svg xmlns="http://www.w3.org/2000/svg" width="26.332" height="22" viewBox="0 0 26.332 22">
  <g id="noun_Camera_817247" transform="translate(32.356 -311.979)">
    <g id="Group_311" data-name="Group 311" transform="translate(-32.356 311.979)">
      <g id="Group_310" data-name="Group 310" transform="translate(0 0)">
        <path id="Path_730" data-name="Path 730" d="M37.08,36a5.472,5.472,0,1,0,5.472,5.472A5.478,5.478,0,0,0,37.08,36Zm0,2.93a2.523,2.523,0,0,0-.918.174,2.553,2.553,0,0,0-1.45,1.45,2.526,2.526,0,0,0-.174.918.744.744,0,1,1-1.488,0,4.034,4.034,0,0,1,4.03-4.03.744.744,0,1,1,0,1.487Z" transform="translate(-23.915 -29.164)" fill="none"/>
        <path id="Path_731" data-name="Path 731" d="M30.16,21.732c-.494-.055-1-.1-1.5-.147l-.57-.051-.261-1.522a2.38,2.38,0,0,0-2.35-1.982h-6.1a2.379,2.379,0,0,0-2.35,1.982l-.261,1.523-.57.051c-.5.045-1.007.092-1.51.148a4.616,4.616,0,0,0-3.527,3.14,22.9,22.9,0,0,0,0,8.621,4.617,4.617,0,0,0,3.534,3.13,69.593,69.593,0,0,0,15.477,0,4.617,4.617,0,0,0,3.527-3.14,22.9,22.9,0,0,0,0-8.615A4.619,4.619,0,0,0,30.16,21.732ZM22.427,35.807a6.96,6.96,0,1,1,6.96-6.96A6.968,6.968,0,0,1,22.427,35.807Z" transform="translate(-9.261 -16.541)" fill="none"/>
        <path id="Path_732" data-name="Path 732" d="M26.825,16.742c-.324-.036-.648-.068-.972-.1l-.068-.4a3.863,3.863,0,0,0-3.817-3.218h-6.1a3.863,3.863,0,0,0-3.817,3.218l-.068.4c-.325.031-.652.063-.982.1A6.117,6.117,0,0,0,6.187,21.07a24.4,24.4,0,0,0,0,9.2,6.118,6.118,0,0,0,4.818,4.317,71,71,0,0,0,7.906.441,71.124,71.124,0,0,0,7.921-.442,6.118,6.118,0,0,0,4.81-4.327,24.383,24.383,0,0,0,0-9.19l0-.012A6.119,6.119,0,0,0,26.825,16.742ZM30.186,29.97a4.618,4.618,0,0,1-3.527,3.14,69.593,69.593,0,0,1-15.477,0,4.616,4.616,0,0,1-3.534-3.13,22.9,22.9,0,0,1,0-8.621,4.616,4.616,0,0,1,3.527-3.14c.5-.056,1.007-.1,1.51-.148l.57-.051.261-1.523a2.38,2.38,0,0,1,2.35-1.982h6.1a2.379,2.379,0,0,1,2.35,1.982l.261,1.522.57.051c.5.045,1.007.092,1.5.147a4.621,4.621,0,0,1,3.536,3.136A22.892,22.892,0,0,1,30.186,29.97Z" transform="translate(-5.75 -13.029)"/>
        <path id="Path_733" data-name="Path 733" d="M33.568,31a6.96,6.96,0,1,0,6.96,6.96A6.968,6.968,0,0,0,33.568,31Zm0,12.432a5.472,5.472,0,1,1,5.472-5.472A5.478,5.478,0,0,1,33.568,43.43Z" transform="translate(-20.402 -25.652)"/>
        <path id="Path_734" data-name="Path 734" d="M40.485,40.845a4.034,4.034,0,0,0-4.03,4.03.744.744,0,0,0,1.488,0,2.526,2.526,0,0,1,.174-.918,2.553,2.553,0,0,1,1.45-1.45,2.524,2.524,0,0,1,.918-.174.744.744,0,1,0,0-1.487Z" transform="translate(-27.319 -32.569)"/>
      </g>
    </g>
  </g>
</svg>
