<svg xmlns="http://www.w3.org/2000/svg" width="26.009" height="22" viewBox="0 0 26.009 22">
  <g id="noun_Add_Comment_14912" data-name="noun_Add Comment_14912" transform="translate(-1.364 -6.086)">
    <g id="Group_315" data-name="Group 315" transform="translate(1.364 6.086)">
      <path id="Path_744" data-name="Path 744" d="M1.364,8.7V22.485A2.618,2.618,0,0,0,3.981,25.1h.962l2.218,2.217a2.617,2.617,0,0,0,1.85.767h.032a2.613,2.613,0,0,0,1.863-.811L12.975,25.1h11.78a2.618,2.618,0,0,0,2.617-2.617V8.7a2.618,2.618,0,0,0-2.617-2.617H3.981A2.617,2.617,0,0,0,1.364,8.7Zm2.617,0H24.755V22.485h-12.9L9.011,25.469,6.026,22.485H3.981Z" transform="translate(-1.364 -6.086)"/>
      <path id="Path_745" data-name="Path 745" d="M30.292,21.974a1.309,1.309,0,0,0-1.309-1.309H26.8V18.484a1.309,1.309,0,0,0-2.617,0v2.181H22a1.309,1.309,0,1,0,0,2.617h2.181v2.182a1.309,1.309,0,1,0,2.617,0V23.283h2.181A1.308,1.308,0,0,0,30.292,21.974Z" transform="translate(-12.49 -12.469)"/>
    </g>
  </g>
</svg>
