<svg xmlns="http://www.w3.org/2000/svg" width="23.777" height="22" viewBox="0 0 23.777 22">
  <g id="noun_Computer_138252" transform="translate(-2.794 -5.949)">
    <path id="Path_659" data-name="Path 659" d="M26.57,20.125V7.678a1.731,1.731,0,0,0-1.729-1.729H4.523A1.731,1.731,0,0,0,2.794,7.678v12.75c0,.007,0,.014,0,.021v2.313c0,.009,0,.018,0,.027v.127c0,.009,0,.018,0,.027v.032h0a1.523,1.523,0,0,0,1.522,1.463h7.714c-.014.342-.2,1.893-2.522,2.185h.074a.663.663,0,1,0,0,1.326h10.16a.663.663,0,0,0,0-1.326h.111c-2.317-.291-2.508-1.843-2.522-2.185h7.714a1.523,1.523,0,0,0,1.522-1.463h0V20.124ZM14.683,23.579a.846.846,0,1,1,.846-.846A.846.846,0,0,1,14.683,23.579Zm10.462-3.151a.3.3,0,0,1-.3.3H4.523a.3.3,0,0,1-.3-.3V7.678a.3.3,0,0,1,.3-.3H24.841a.3.3,0,0,1,.3.3Z" transform="translate(0 0)"/>
    <path id="Path_660" data-name="Path 660" d="M45,45" transform="translate(-30.317 -28.051)"/>
  </g>
</svg>
