<svg xmlns="http://www.w3.org/2000/svg" width="30.935" height="22" viewBox="0 0 30.935 22">
  <g id="noun_contact_2984932" transform="translate(-8.395 -20.411)">
    <g id="Group_288" data-name="Group 288" transform="translate(8.395 20.411)">
      <path id="Path_695" data-name="Path 695" d="M37.3,20.411H10.427A2.032,2.032,0,0,0,8.4,22.442v.233l15.469,9.488,15.466-9.458v-.263A2.032,2.032,0,0,0,37.3,20.411Z" transform="translate(-8.395 -20.411)"/>
      <path id="Path_696" data-name="Path 696" d="M23.862,45.344a1.519,1.519,0,0,1-.8-.225L8.4,36.12V50.248a2.032,2.032,0,0,0,2.032,2.032H37.3a2.032,2.032,0,0,0,2.032-2.032v-14.1L24.658,45.12A1.525,1.525,0,0,1,23.862,45.344Z" transform="translate(-8.395 -30.28)"/>
    </g>
  </g>
</svg>
