<svg id="dribbble-logo" xmlns="http://www.w3.org/2000/svg" width="22" height="22" viewBox="0 0 22 22">
  <path id="Path_718" data-name="Path 718" d="M20.525,5.478a10.954,10.954,0,0,0-4-4A10.76,10.76,0,0,0,11,0,10.76,10.76,0,0,0,5.479,1.475a10.951,10.951,0,0,0-4,4A10.76,10.76,0,0,0,0,11a10.762,10.762,0,0,0,1.475,5.522,10.954,10.954,0,0,0,4,4A10.761,10.761,0,0,0,11,22a10.761,10.761,0,0,0,5.522-1.475,10.951,10.951,0,0,0,4-4A10.762,10.762,0,0,0,22,11,10.762,10.762,0,0,0,20.525,5.478ZM11,1.6a9.054,9.054,0,0,1,6.2,2.349l-.179.25a6.213,6.213,0,0,1-.537.58,9.206,9.206,0,0,1-.938.816,12.566,12.566,0,0,1-1.382.881,13.3,13.3,0,0,1-1.862.867A40.848,40.848,0,0,0,8.78,1.876,9.476,9.476,0,0,1,11,1.6ZM3.638,5.17A9.269,9.269,0,0,1,6.99,2.506,49.307,49.307,0,0,1,10.485,7.92,33.98,33.98,0,0,1,1.8,9.066,9.286,9.286,0,0,1,3.638,5.17Zm-1.4,9.217A9.216,9.216,0,0,1,1.6,11a2.334,2.334,0,0,1,.014-.3,33.5,33.5,0,0,0,9.64-1.332q.458.888.759,1.59a1.158,1.158,0,0,1-.186.064l-.187.05-.53.186a11.016,11.016,0,0,0-1.425.687q-.881.487-1.869,1.16a12.8,12.8,0,0,0-2.041,1.784A12.005,12.005,0,0,0,4.01,17.274,9.407,9.407,0,0,1,2.234,14.388ZM11,20.4a9.219,9.219,0,0,1-5.987-2.148l.215.158A7.666,7.666,0,0,1,6.7,16.285a12.451,12.451,0,0,1,1.876-1.64,18.489,18.489,0,0,1,1.962-1.175q1.06-.551,1.447-.7t.616-.237l.028-.014h.029a38.72,38.72,0,0,1,2.005,7.133A9.391,9.391,0,0,1,11,20.4Zm7.907-4.318a9.386,9.386,0,0,1-2.65,2.714,40.356,40.356,0,0,0-1.834-6.718,13.532,13.532,0,0,1,5.858.415A9.269,9.269,0,0,1,18.907,16.078Zm1.346-5.206q-.143-.028-.358-.064l-.523-.086q-.308-.05-.687-.093t-.809-.079q-.43-.036-.916-.057t-.989-.021q-.5,0-1.053.029t-1.067.1a1.7,1.7,0,0,1-.108-.236c-.043-.11-.074-.193-.093-.251q-.272-.6-.631-1.361A14.7,14.7,0,0,0,14.9,7.827,14.639,14.639,0,0,0,16.336,6.9a11.905,11.905,0,0,0,1.017-.867,8.267,8.267,0,0,0,.623-.637q.143-.179.272-.351l.014-.014A9.188,9.188,0,0,1,20.4,10.9Z" transform="translate(0 0)"/>
</svg>
