<svg xmlns="http://www.w3.org/2000/svg" width="11.894" height="22" viewBox="0 0 11.894 22">
  <g id="face" transform="translate(-14.486 -10.761)">
    <g id="facebook-logo" transform="translate(14.486 10.761)">
      <path id="Path_8" data-name="Path 8" d="M33.523,0,30.671,0c-3.205,0-5.276,2.125-5.276,5.414v2.5H22.526a.449.449,0,0,0-.449.449v3.617a.449.449,0,0,0,.449.449h2.868v9.127a.448.448,0,0,0,.449.449h3.743a.449.449,0,0,0,.449-.449V12.425h3.354a.448.448,0,0,0,.449-.449V8.359a.449.449,0,0,0-.449-.449H30.034V5.794c0-1.017.242-1.533,1.567-1.533h1.922a.449.449,0,0,0,.448-.449V.453A.449.449,0,0,0,33.523,0Z" transform="translate(-22.077)"/>
    </g>
  </g>
</svg>
