<svg id="google-plus" xmlns="http://www.w3.org/2000/svg" width="34.133" height="22" viewBox="0 0 34.133 22">
  <path id="Path_712" data-name="Path 712" d="M11.066,4a7.047,7.047,0,0,1,5.6,2.82l2.84-2.86A10.993,10.993,0,1,0,21.646,14a10.663,10.663,0,0,0,.42-3V10h-10v4h5.3a6.959,6.959,0,0,1-6.3,4A7.065,7.065,0,0,1,4,11a7.065,7.065,0,0,1,7.067-7Zm0,0" transform="translate(0 0)"/>
  <path id="Path_713" data-name="Path 713" d="M368,90h-4v3h-3v4h3v3h4V97h3.067V93H368Zm0,0" transform="translate(-336.933 -84)"/>
</svg>
