<svg xmlns="http://www.w3.org/2000/svg" width="23.019" height="22" viewBox="0 0 23.019 22">
  <g id="linkedin-letters" transform="translate(0 -9.708)">
    <g id="Group_19" data-name="Group 19" transform="translate(0 9.708)">
      <rect id="Rectangle_52" data-name="Rectangle 52" width="4.945" height="14.851" transform="translate(0.285 7.149)"/>
      <path id="Path_652" data-name="Path 652" d="M165.1,141.032a5.323,5.323,0,0,0-4.121-1.7,5.941,5.941,0,0,0-1.716.232,3.894,3.894,0,0,0-1.3.652,5.584,5.584,0,0,0-1.431,1.572v-2.112H151.6l.015.719q.015.72.015,4.436t-.03,9.7h4.93v-8.288a3.62,3.62,0,0,1,.165-1.214,3.183,3.183,0,0,1,.952-1.281,2.426,2.426,0,0,1,1.581-.517,2.132,2.132,0,0,1,1.9.892,4.336,4.336,0,0,1,.607,2.465v7.943h4.931v-8.512A7.136,7.136,0,0,0,165.1,141.032Z" transform="translate(-143.64 -132.527)"/>
      <path id="Path_653" data-name="Path 653" d="M2.787,9.708a2.821,2.821,0,0,0-2.016.727A2.413,2.413,0,0,0,0,12.271,2.456,2.456,0,0,0,.749,14.1a2.7,2.7,0,0,0,1.978.734h.03A2.824,2.824,0,0,0,4.788,14.1a2.372,2.372,0,0,0,.757-1.828,2.5,2.5,0,0,0-.764-1.836A2.74,2.74,0,0,0,2.787,9.708Z" transform="translate(0 -9.708)"/>
    </g>
  </g>
</svg>
