<svg xmlns="http://www.w3.org/2000/svg" width="22.396" height="25.794" viewBox="0 0 22.396 25.794">
  <g id="noun_link_2659295" transform="translate(-5.614 1.557) rotate(-11)">
    <g id="link" transform="translate(3.34 3.339)">
      <path id="Path_740" data-name="Path 740" d="M14.956,21.209,12.5,23.668a4.344,4.344,0,1,1-6.143-6.143l2.459-2.458A.869.869,0,1,0,7.58,13.841L5.121,16.3a6.082,6.082,0,0,0,8.6,8.6l2.459-2.459a.869.869,0,1,0-1.225-1.234Z" transform="translate(-3.34 -4.683)"/>
      <path id="Path_741" data-name="Path 741" d="M24.9,5.121a6.082,6.082,0,0,0-8.6,0L13.841,7.58a.869.869,0,0,0,1.225,1.234l2.459-2.459A4.344,4.344,0,1,1,23.668,12.5l-2.459,2.458a.869.869,0,0,0,1.234,1.225L24.9,13.723A6.082,6.082,0,0,0,24.9,5.121Z" transform="translate(-4.683 -3.339)"/>
      <path id="Path_742" data-name="Path 742" d="M17.865,11.728l-6.143,6.143A.866.866,0,1,0,12.947,19.1l6.143-6.143a.869.869,0,0,0-1.225-1.225Z" transform="translate(-4.406 -4.412)"/>
    </g>
  </g>
</svg>
