<svg xmlns="http://www.w3.org/2000/svg" width="13.78" height="23" viewBox="0 0 13.78 23">
  <g id="noun_Mobile_1620056" transform="translate(-23.36 -4.5)">
    <path id="Path_729" data-name="Path 729" d="M34.928,5H25.571A1.711,1.711,0,0,0,23.86,6.711V25.289A1.711,1.711,0,0,0,25.571,27h9.357a1.711,1.711,0,0,0,1.711-1.711V6.711A1.711,1.711,0,0,0,34.928,5Zm.912,20.289a.912.912,0,0,1-.912.912H25.571a.912.912,0,0,1-.912-.912V6.711a.912.912,0,0,1,.912-.912h9.357a.912.912,0,0,1,.912.912Z" stroke="#000" stroke-width="1"/>
    <circle id="Ellipse_27" data-name="Ellipse 27" cx="0.961" cy="0.961" r="0.961" transform="translate(29.289 23.328)" stroke="#000" stroke-width="1"/>
  </g>
</svg>
