<svg xmlns="http://www.w3.org/2000/svg" width="22" height="22.004" viewBox="0 0 22 22.004">
  <g id="noun_Phone_2985431" transform="translate(-291.203 -162.212)">
    <g id="Group_290" data-name="Group 290" transform="translate(291.203 162.212)">
      <path id="Path_697" data-name="Path 697" d="M98.408,99.932c-2.233,2.233-7.9.177-12.677-4.589S78.908,84.9,81.142,82.666l2.313-2.313a1.041,1.041,0,0,1,1.468,0l2.362,2.362a1.041,1.041,0,0,1,0,1.468l-1.609,1.609c-1.242,1.242-.153,4.4,2.5,7.048s5.868,3.8,7.11,2.557l1.609-1.609a1.041,1.041,0,0,1,1.468,0l2.362,2.362a1.041,1.041,0,0,1,0,1.468Z" transform="translate(-79.624 -79.446)"/>
      <g id="Group_289" data-name="Group 289" transform="translate(0 0)">
        <path id="Path_698" data-name="Path 698" d="M88.559,90.233c-.073.073-.153.141-.232.208.092-.073-.031.018-.067.043l-.153.1a2.415,2.415,0,0,1-.281.141c.1-.043-.012.006-.049.018a2.068,2.068,0,0,1-.208.067,2.787,2.787,0,0,1-.324.08c-.055.012-.11.018-.171.031-.006,0-.1.012-.031.006s-.08.006-.092.012a5.407,5.407,0,0,1-.771.012A9.863,9.863,0,0,1,82.563,89.9,22.65,22.65,0,0,1,74.6,83.2a18.2,18.2,0,0,1-2.411-4.069,10.745,10.745,0,0,1-.6-1.921,5.551,5.551,0,0,1-.128-1.579c.006-.061.006-.122.012-.177.006-.037.006-.08.012-.116,0,.012-.012.092,0,.018a3.426,3.426,0,0,1,.073-.361,3.109,3.109,0,0,1,.092-.318c.006-.018.073-.184.049-.128s.043-.092.061-.116a2.392,2.392,0,0,1,.159-.269c.012-.024.11-.159.073-.1s.061-.073.086-.1c.067-.073.135-.141.2-.208l1.878-1.878c.171-.171.373-.459.636-.459s.453.275.624.447l1.927,1.927c.214.214.343.453.11.722s-.52.52-.777.777a4.077,4.077,0,0,0-1.462,2.086,6.1,6.1,0,0,0,1.028,3.959,13.984,13.984,0,0,0,3.622,4.008,8.809,8.809,0,0,0,4.148,1.891,3.17,3.17,0,0,0,1.683-.214,3.069,3.069,0,0,0,.857-.655l1.034-1.034c.2-.2.428-.538.74-.471.239.049.453.355.618.52L90,86.434c.275.275.545.551.826.826a.457.457,0,0,1,.061.7c-.551.612-1.169,1.169-1.75,1.75a4.846,4.846,0,0,0-.581.526.61.61,0,0,0,.863.863l1.713-1.713c.2-.2.41-.392.6-.6a1.681,1.681,0,0,0-.006-2.337c-.575-.618-1.2-1.2-1.8-1.8-.208-.208-.4-.428-.63-.624a1.678,1.678,0,0,0-2.276.073c-.557.526-1.077,1.1-1.634,1.634a.915.915,0,0,1-.08.067c.006-.006.08-.055.024-.018a1.462,1.462,0,0,1-.128.08c-.037.018-.171.08-.067.037-.061.024-.116.043-.177.061s-.128.031-.19.043c-.116.024.049,0-.067.006a3.256,3.256,0,0,1-1.26-.147,6.519,6.519,0,0,1-.948-.349,12.274,12.274,0,0,1-4.179-3.328,11.073,11.073,0,0,1-1.389-2.129,6.613,6.613,0,0,1-.392-1c-.043-.141-.08-.288-.11-.428a2.981,2.981,0,0,1-.061-.379,2.649,2.649,0,0,1-.006-.441c.006-.061.006-.116.012-.177-.012.116.018-.092.031-.116.012-.055.031-.1.043-.159.012-.037.061-.147.018-.055a1.316,1.316,0,0,1,.086-.159c.018-.037.11-.153.037-.067.226-.275.508-.52.759-.771.306-.306.618-.612.924-.924a1.666,1.666,0,0,0,.214-2.135,6.51,6.51,0,0,0-.691-.734l-1.12-1.12c-.239-.239-.477-.489-.722-.722a1.673,1.673,0,0,0-2.215-.122c-.245.2-.453.434-.673.649l-1.114,1.114a5.562,5.562,0,0,0-1.468,1.958,6.128,6.128,0,0,0-.024,3.543,14.965,14.965,0,0,0,1.866,4.246,24.882,24.882,0,0,0,7.929,7.96,15.133,15.133,0,0,0,4.258,1.9,6.212,6.212,0,0,0,3.567.012,3.659,3.659,0,0,0,1.346-.832C89.985,90.545,89.122,89.682,88.559,90.233Z" transform="translate(-70.204 -70.182)"/>
      </g>
    </g>
  </g>
</svg>
