<svg xmlns="http://www.w3.org/2000/svg" width="29.864" height="22" viewBox="0 0 29.864 22">
  <g id="noun_Quote_450889" transform="translate(0)">
    <path id="Path_691" data-name="Path 691" d="M9.181,30.571c0-2.024-4.181-2.323-4.181-7.3A6.129,6.129,0,0,1,11.272,16.9c3.882.033,6.437,3.517,6.437,7.2,0,6.371-5.973,14.8-9.689,14.8-.929,0-2.621-.664-2.621-1.792S9.181,34.022,9.181,30.571Z" transform="translate(12.155 -16.9)"/>
    <path id="Path_692" data-name="Path 692" d="M60.781,30.671c0-2.024-4.181-2.323-4.181-7.3A6.129,6.129,0,0,1,62.872,17c3.916,0,6.471,3.484,6.471,7.167,0,6.371-5.973,14.8-9.689,14.8-.929,0-2.621-.664-2.621-1.792S60.781,34.122,60.781,30.671Z" transform="translate(-56.6 -17)"/>
  </g>
</svg>
