<svg xmlns="http://www.w3.org/2000/svg" width="22" height="52.264" viewBox="0 0 22 52.264">
  <g id="noun_Scroll_2836309" transform="translate(-30 -2.475)">
    <g id="Group_307" data-name="Group 307" transform="translate(30 2.475)">
      <path id="Path_723" data-name="Path 723" d="M41,20.5a11.032,11.032,0,0,0-11,11V41.95a11,11,0,1,0,22,0V31.5A11.032,11.032,0,0,0,41,20.5Zm7.865,21.45a7.865,7.865,0,1,1-15.73,0V31.5a7.865,7.865,0,1,1,15.73,0Z" transform="translate(-30 -10.586)"/>
      <path id="Path_724" data-name="Path 724" d="M48.74,32.4a1.537,1.537,0,0,0-1.54,1.54v4.235a1.537,1.537,0,0,0,1.54,1.54,1.574,1.574,0,0,0,1.54-1.54V33.94A1.537,1.537,0,0,0,48.74,32.4Z" transform="translate(-37.74 -15.941)"/>
      <path id="Path_725" data-name="Path 725" d="M48.319,85.429l-2.695,2.695-2.695-2.7a1.556,1.556,0,0,0-2.2,2.2l3.795,3.795a1.49,1.49,0,0,0,1.1.44,1.635,1.635,0,0,0,1.1-.44l3.8-3.795a1.556,1.556,0,1,0-2.2-2.2Z" transform="translate(-34.624 -39.6)"/>
      <path id="Path_726" data-name="Path 726" d="M42.929,8.924l2.695-2.695,2.695,2.7a1.49,1.49,0,0,0,1.1.44,1.635,1.635,0,0,0,1.1-.44,1.56,1.56,0,0,0,0-2.2l-3.8-3.8a1.56,1.56,0,0,0-2.2,0l-3.795,3.8a1.556,1.556,0,0,0,2.2,2.2Z" transform="translate(-34.624 -2.475)"/>
    </g>
  </g>
</svg>
