<svg xmlns="http://www.w3.org/2000/svg" width="22.034" height="22" viewBox="0 0 22.034 22">
  <g id="noun_Settings_2988551" transform="translate(-0.015 -0.015)">
    <g id="Group_309" data-name="Group 309" transform="translate(0.015 0.015)">
      <g id="Group_308" data-name="Group 308" transform="translate(0)">
        <path id="Path_727" data-name="Path 727" d="M20.362,8.123a1.5,1.5,0,0,1-.688-1.685,3.365,3.365,0,0,0-2.441-4.091,3.491,3.491,0,0,0-1.685,0A1.438,1.438,0,0,1,13.9,1.66,3.351,3.351,0,0,0,9.292.491,3.177,3.177,0,0,0,8.123,1.66a1.5,1.5,0,0,1-1.685.688A3.365,3.365,0,0,0,2.347,4.788a3.491,3.491,0,0,0,0,1.685A1.5,1.5,0,0,1,1.66,8.157,3.3,3.3,0,0,0,.491,12.73,3.177,3.177,0,0,0,1.66,13.9a1.5,1.5,0,0,1,.688,1.685,3.365,3.365,0,0,0,2.441,4.091,3.491,3.491,0,0,0,1.685,0,1.5,1.5,0,0,1,1.685.688,3.337,3.337,0,0,0,4.607,1.169,3.177,3.177,0,0,0,1.169-1.169,1.5,1.5,0,0,1,1.685-.688,3.365,3.365,0,0,0,4.091-2.441,3.491,3.491,0,0,0,0-1.685A1.438,1.438,0,0,1,20.4,13.9a3.337,3.337,0,0,0,1.169-4.607,3.554,3.554,0,0,0-1.2-1.169ZM19.4,12.317a3.38,3.38,0,0,0-1.513,3.747,1.5,1.5,0,0,1-1.1,1.822,1.412,1.412,0,0,1-.756,0,3.42,3.42,0,0,0-3.747,1.547,1.512,1.512,0,0,1-2.063.55,1.681,1.681,0,0,1-.55-.55,3.4,3.4,0,0,0-3.747-1.547,1.5,1.5,0,0,1-1.822-1.1,1.412,1.412,0,0,1,0-.756,3.42,3.42,0,0,0-1.547-3.747A1.512,1.512,0,0,1,2,10.22a1.681,1.681,0,0,1,.55-.55A3.4,3.4,0,0,0,4.1,5.923,1.5,1.5,0,0,1,5.2,4.1a1.412,1.412,0,0,1,.756,0A3.42,3.42,0,0,0,9.7,2.554,1.512,1.512,0,0,1,11.767,2a1.681,1.681,0,0,1,.55.55A3.4,3.4,0,0,0,16.064,4.1a1.5,1.5,0,0,1,1.822,1.1,1.412,1.412,0,0,1,0,.756A3.42,3.42,0,0,0,19.434,9.7a1.512,1.512,0,0,1,.55,2.063,1.8,1.8,0,0,1-.584.55Z" transform="translate(-0.015 -0.015)"/>
        <path id="Path_728" data-name="Path 728" d="M23.141,18.5a4.641,4.641,0,1,0,4.641,4.641h0A4.622,4.622,0,0,0,23.141,18.5Zm0,7.426a2.785,2.785,0,1,1,2.785-2.785h0A2.773,2.773,0,0,1,23.141,25.926Z" transform="translate(-12.145 -12.145)"/>
      </g>
    </g>
  </g>
</svg>
