<svg xmlns="http://www.w3.org/2000/svg" width="11.825" height="22" viewBox="0 0 11.825 22">
  <g id="smartphone" transform="translate(-21.545)">
    <path id="Path_746" data-name="Path 746" d="M31.783,0H23.132a1.587,1.587,0,0,0-1.587,1.587V20.413A1.587,1.587,0,0,0,23.132,22h8.651a1.587,1.587,0,0,0,1.587-1.587V1.587A1.587,1.587,0,0,0,31.783,0ZM26.4.938h2.123a.138.138,0,0,1,0,.277H26.4a.138.138,0,0,1,0-.277ZM24.28.605a.221.221,0,1,1-.221.221A.222.222,0,0,1,24.28.605Zm-1-.133a.354.354,0,1,1-.354.354A.354.354,0,0,1,23.276.472Zm4.735,20.722H26.9a.636.636,0,1,1,0-1.271h1.108a.636.636,0,1,1,0,1.271ZM32.7,19.421H22.217V2.579H32.7Z" transform="translate(0 0)"/>
  </g>
</svg>
