<svg xmlns="http://www.w3.org/2000/svg" width="22" height="22.001" viewBox="0 0 22 22.001">
  <g id="noun_Star_183607" transform="translate(-14.78 -49.778)">
    <g id="Group_313" data-name="Group 313" transform="translate(14.78 49.778)">
      <path id="Path_743" data-name="Path 743" d="M5.783,15.435l4.549,3.116a.631.631,0,0,1,.231.519v.115l-1.682,6a2.027,2.027,0,0,0-.116.605A1.231,1.231,0,0,0,9,26.54a1.045,1.045,0,0,0,.9.433,1.588,1.588,0,0,0,1.041-.433L15.769,22.9c.029-.057.145-.086.26-.086a.385.385,0,0,1,.289.086l5.094,3.667A1.662,1.662,0,0,0,22.454,27h.029a1.14,1.14,0,0,0,.868-.461,1.249,1.249,0,0,0,.2-.72,1.8,1.8,0,0,0-.115-.663L21.5,19.127v-.115a.614.614,0,0,1,.231-.49l4.52-3.087a2.911,2.911,0,0,0,.463-.4A1.323,1.323,0,0,0,27,14.225a1,1,0,0,0-.232-.692,1.287,1.287,0,0,0-.665-.4,2.03,2.03,0,0,0-.579-.087l-5.85-.4a.614.614,0,0,1-.318-.115.525.525,0,0,1-.2-.288L17.244,6.153a2.815,2.815,0,0,0-.289-.606,1.1,1.1,0,0,0-1.908,0,1.828,1.828,0,0,0-.261.606l-1.937,6.087a.528.528,0,0,1-.2.288.612.612,0,0,1-.318.115l-5.85.4a1.967,1.967,0,0,0-.781.144,1.473,1.473,0,0,0-.463.346,1.169,1.169,0,0,0,.087,1.5A2.036,2.036,0,0,0,5.783,15.435Z" transform="translate(-5.003 -5)"/>
    </g>
  </g>
</svg>
