<svg id="noun_Video_1955876" xmlns="http://www.w3.org/2000/svg" width="22" height="22" viewBox="0 0 22 22">
  <path id="Path_629" data-name="Path 629" d="M11,22A11,11,0,1,1,22,11,11,11,0,0,1,11,22ZM11,1.257A9.743,9.743,0,1,0,20.743,11,9.743,9.743,0,0,0,11,1.257Z" transform="translate(0 0)"/>
  <path id="Path_630" data-name="Path 630" d="M352.655,296.545a1.572,1.572,0,0,1-.786-.214,1.55,1.55,0,0,1-.786-1.361V288.44a1.571,1.571,0,0,1,2.357-1.361l5.657,3.265a1.571,1.571,0,0,1,0,2.722l-5.657,3.265A1.572,1.572,0,0,1,352.655,296.545Zm0-8.423a.319.319,0,0,0-.314.317v6.531a.314.314,0,0,0,.471.273l5.657-3.265a.314.314,0,0,0,0-.547l-5.657-3.265A.314.314,0,0,0,352.655,288.122Z" transform="translate(-343.541 -280.705)"/>
</svg>
