<svg xmlns="http://www.w3.org/2000/svg" width="22.281" height="22" viewBox="0 0 22.281 22">
  <g id="noun_Zoom_In_1701533" data-name="noun_Zoom In_1701533" transform="translate(-10.6 -9.6)">
    <path id="Path_735" data-name="Path 735" d="M24.37,19.413a.748.748,0,0,1-.791.791H21.2v2.374a.791.791,0,1,1-1.583,0V20.2H17.247a.791.791,0,0,1,0-1.583h2.374V16.247a.791.791,0,0,1,1.583,0v2.374h2.374A.748.748,0,0,1,24.37,19.413Zm8.309,11.871a.72.72,0,0,1-.633.317,1.125,1.125,0,0,1-.475-.158L26.19,27.247A9.78,9.78,0,1,1,20.413,9.6a9.862,9.862,0,0,1,9.813,9.813,9.635,9.635,0,0,1-2.77,6.806L32.6,30.176A.769.769,0,0,1,32.679,31.283Zm-12.266-3.64a8.23,8.23,0,1,0-8.23-8.23A8.224,8.224,0,0,0,20.413,27.643Z" transform="translate(0 0)"/>
  </g>
</svg>
